#!OML:ASF H:\Dans Jumps\Project 1\Capture day 1\Session 1\subject.ASF
:FULLY-SPECIFIED
:DEGREES
550
root 0.681922 17.6838 11.8043 8.16913 -2.26321 -1.53324
lowerback -4.44492 -0.0668154 -0.255887
upperback 1.00521 -0.127583 1.54169
thorax 3.533 -0.0856521 1.72326
lowerneck -13.5104 -0.273161 -2.11088
upperneck 16.5333 -0.230323 1.62871
head 7.30478 -0.0930508 0.855762
rclavicle -9.91439e-015 -3.57812e-015
rhumerus -27.4359 -16.0483 -79.91
rradius 23.5539
rwrist 39.0535
rhand -15.8685 -26.4028
rfingers 7.12502
rthumb 10.327 -56.1292
lclavicle -9.91439e-015 -3.57812e-015
lhumerus -25.3621 4.42186 86.5467
lradius 17.0252
lwrist -0.138894
lhand -24.0737 -4.53303
lfingers 7.12502
lthumb 2.40619 25.4332
rfemur -13.3387 -3.90621 21.2607
rtibia 21.1186
rfoot -14.927 -1.4474
rtoes 12.2292
lfemur -12.7263 9.1716 -19.2563
ltibia 17.9568
lfoot -10.7659 6.58559
ltoes -4.28917
551
root 0.681097 17.6837 11.8022 8.15608 -2.24298 -1.52981
lowerback -4.42602 -0.0629951 -0.264604
upperback 1.00056 -0.121902 1.5442
thorax 3.51739 -0.0829347 1.73113
lowerneck -13.5026 -0.286061 -2.13385
upperneck 16.5181 -0.247041 1.64988
head 7.29885 -0.100513 0.864689
rclavicle -5.14355e-015 -3.57812e-015
rhumerus -27.4443 -16.1103 -79.8704
rradius 23.5159
rwrist 39.074
rhand -15.852 -26.4107
rfingers 7.12502
rthumb 10.3429 -56.1363
lclavicle -5.14355e-015 -3.57812e-015
lhumerus -25.3105 4.52131 86.4455
lradius 17.0319
lwrist -0.163151
lhand -24.0833 -4.53192
lfingers 7.12502
lthumb 2.39689 25.4344
rfemur -13.3342 -3.90963 21.2612
rtibia 21.1275
rfoot -14.9279 -1.46778
rtoes 12.232
lfemur -12.7213 9.15677 -19.2538
ltibia 17.9562
lfoot -10.7606 6.57772
ltoes -4.28555
552
root 0.680183 17.6836 11.8001 8.14222 -2.22276 -1.52562
lowerback -4.40614 -0.0590969 -0.273443
upperback 0.996618 -0.116074 1.54548
thorax 3.50193 -0.0801354 1.7378
lowerneck -13.4881 -0.301325 -2.15515
upperneck 16.5015 -0.267093 1.66898
head 7.29136 -0.109681 0.87231
rclavicle -1.9133e-015 2.56432e-014
rhumerus -27.4527 -16.1684 -79.8348
rradius 23.4861
rwrist 39.0792
rhand -15.8345 -26.429
rfingers 7.12502
rthumb 10.3598 -56.1538
lclavicle -1.9133e-015 2.56432e-014
lhumerus -25.2547 4.63171 86.3435
lradius 17.0313
lwrist -0.214918
lhand -24.0999 -4.61646
lfingers 7.12502
lthumb 2.38086 25.35
rfemur -13.3305 -3.91671 21.2617
rtibia 21.1386
rfoot -14.9295 -1.48537
rtoes 12.2308
lfemur -12.7156 9.13233 -19.2512
ltibia 17.9557
lfoot -10.7497 6.58073
ltoes -4.28959
553
root 0.679392 17.6836 11.7978 8.12927 -2.19917 -1.51901
lowerback -4.38791 -0.0573825 -0.283679
upperback 0.993801 -0.113118 1.54709
thorax 3.48867 -0.0788133 1.74538
lowerneck -13.4879 -0.311269 -2.16392
upperneck 16.4932 -0.280401 1.67787
head 7.28888 -0.115747 0.875272
rclavicle -3.10601e-015 8.34896e-015
rhumerus -27.4597 -16.2145 -79.8014
rradius 23.4661
rwrist 39.0714
rhand -15.832 -26.4399
rfingers 7.12502
rthumb 10.3622 -56.1645
lclavicle -3.10601e-015 8.34896e-015
lhumerus -25.1967 4.76399 86.2403
lradius 17.0378
lwrist -0.292524
lhand -24.1135 -4.7565
lfingers 7.12502
lthumb 2.36771 25.2101
rfemur -13.328 -3.92596 21.2594
rtibia 21.15
rfoot -14.9297 -1.50396
rtoes 12.2242
lfemur -12.7128 9.10869 -19.2522
ltibia 17.9557
lfoot -10.7387 6.57971
ltoes -4.29068
